<svg width="18" height="18" viewBox="0 0 18 18" fill="none" xmlns="http://www.w3.org/2000/svg">
<path fill-rule="evenodd" clip-rule="evenodd" d="M9 0C9.41421 0 9.75 0.335786 9.75 0.75V9.53701L11.7413 7.6989C12.0457 7.41794 12.5202 7.43692 12.8011 7.74129C13.0821 8.04566 13.0631 8.52015 12.7587 8.8011L9.50871 11.8011C9.22141 12.0663 8.77859 12.0663 8.49129 11.8011L5.24129 8.8011C4.93692 8.52015 4.91794 8.04566 5.1989 7.74129C5.47985 7.43692 5.95434 7.41794 6.25871 7.6989L8.25 9.53701V0.75C8.25 0.335786 8.58579 0 9 0ZM0.75 12C1.16421 12 1.5 12.3358 1.5 12.75V15.25C1.5 15.9404 2.05964 16.5 2.75 16.5H15.25C15.9404 16.5 16.5 15.9404 16.5 15.25V12.75C16.5 12.3358 16.8358 12 17.25 12C17.6642 12 18 12.3358 18 12.75V15.25C18 16.7688 16.7688 18 15.25 18H2.75C1.23122 18 0 16.7688 0 15.25V12.75C0 12.3358 0.335786 12 0.75 12Z" fill="#4A545E"/>
</svg>
