<svg xmlns="http://www.w3.org/2000/svg" width="120" height="62" fill="none" viewBox="0 0 120 62">
  <g filter="url(#a)">
    <path fill="#fff" fill-rule="evenodd" d="M16 20h2.994v13.937H16V20.001Zm14.496 1.38v12.557H27.5V22.78h-3.013v11.157h-2.994V20h7.515c.408 0 .76.133 1.06.397.285.277.428.605.428.983ZM32.995 20h3.36c.38 1.677 1.134 5.043 2.261 10.099.38-1.677 1.133-5.044 2.26-10.099h3.361c-.68 2.32-2.05 6.965-4.114 13.937h-3.014c-.91-3.102-2.28-7.747-4.114-13.937Zm13.742 0h2.994v13.937h-2.994V20Zm11.501 4.179v-1.4h-3.014v8.378h3.014v-1.4h2.995v2.78c0 .392-.143.72-.429.984a1.5 1.5 0 0 1-1.059.416h-6.008a1.46 1.46 0 0 1-1.059-.416 1.26 1.26 0 0 1-.447-.983V21.38c0-.378.149-.706.447-.983a1.504 1.504 0 0 1 1.06-.397h6.007c.408 0 .76.133 1.06.397.285.277.428.605.428.983v2.799h-2.995Zm14.496-1.399H69.74v11.157h-3.014V22.78h-2.994V20h9.002v2.78ZM84.235 20v12.538c0 .39-.142.719-.427.983a1.5 1.5 0 0 1-1.06.416h-6.007c-.42 0-.774-.138-1.059-.416a1.259 1.259 0 0 1-.448-.983V20h2.994v11.157h3.014V20h2.993Zm8.508 4.179v-1.4h-3.014v2.8h4.521c.408 0 .76.132 1.059.397.285.277.428.605.428.983v5.579c0 .39-.143.719-.428.983a1.5 1.5 0 0 1-1.059.416h-6.008a1.46 1.46 0 0 1-1.059-.416 1.26 1.26 0 0 1-.448-.983v-2.78h2.994v1.4h3.014v-2.8h-4.5c-.421 0-.774-.132-1.06-.397a1.32 1.32 0 0 1-.448-1.002V21.38c0-.378.15-.706.448-.983a1.504 1.504 0 0 1 1.06-.397h6.007c.408 0 .76.133 1.059.397.285.277.428.605.428.983v2.799h-2.994Z" clip-rule="evenodd"/>
  </g>
  <defs>
    <filter id="a" width="131" height="62" x="-8" y="0" color-interpolation-filters="sRGB" filterUnits="userSpaceOnUse">
      <feFlood flood-opacity="0" result="BackgroundImageFix"/>
      <feColorMatrix in="SourceAlpha" result="hardAlpha" values="0 0 0 0 0 0 0 0 0 0 0 0 0 0 0 0 0 0 127 0"/>
      <feOffset dy="4"/>
      <feGaussianBlur stdDeviation="12"/>
      <feComposite in2="hardAlpha" operator="out"/>
      <feColorMatrix values="0 0 0 0 0.4375 0 0 0 0 0.413802 0 0 0 0 0.413802 0 0 0 0.25 0"/>
      <feBlend in2="BackgroundImageFix" result="effect1_dropShadow_2570_21480"/>
      <feBlend in="SourceGraphic" in2="effect1_dropShadow_2570_21480" result="shape"/>
    </filter>
  </defs>
</svg>
