<svg width="18" height="22" viewBox="0 0 18 22" fill="none" xmlns="http://www.w3.org/2000/svg">
<path fill-rule="evenodd" clip-rule="evenodd" d="M3.89961 1.99995C3.07118 1.99995 2.39961 2.67152 2.39961 3.49995V18.5C2.39961 19.3284 3.07118 20 3.89961 20H14.0996C14.928 20 15.5996 19.3284 15.5996 18.5V7.99995H10.4996C10.0026 7.99995 9.59961 7.59701 9.59961 7.09995V1.99995H3.89961ZM11.3996 3.27274L14.3268 6.19995H11.3996V3.27274ZM0.599609 3.49995C0.599609 1.67741 2.07707 0.199951 3.89961 0.199951H10.4996C10.7383 0.199951 10.9672 0.294772 11.136 0.463555L17.136 6.46355C17.3048 6.63234 17.3996 6.86126 17.3996 7.09995V18.5C17.3996 20.3225 15.9221 21.7999 14.0996 21.7999H3.89961C2.07707 21.7999 0.599609 20.3225 0.599609 18.5V3.49995Z" fill="#7E8C9A"/>
</svg>
