<svg xmlns="http://www.w3.org/2000/svg" width="20" height="20" fill="none" viewBox="0 0 20 20">
  <path fill="#555F6D" fill-rule="evenodd" d="M4.92 2.5h10.16c.535 0 .98 0 1.345.03.38.03.736.098 1.073.27A2.75 2.75 0 0 1 18.7 4.002c.172.337.24.693.27 1.073.03.365.03.81.03 1.345v.41c0 .535 0 .98-.03 1.345-.03.38-.098.736-.27 1.073a2.752 2.752 0 0 1-.563.752c.228.215.42.469.563.752.172.337.24.693.27 1.073.03.365.03.81.03 1.345v.41c0 .535 0 .98-.03 1.345-.03.38-.098.736-.27 1.073a2.751 2.751 0 0 1-1.2 1.202c-.338.172-.694.24-1.074.27-.365.03-.81.03-1.345.03H4.92c-.535 0-.98 0-1.345-.03-.38-.03-.736-.098-1.073-.27A2.75 2.75 0 0 1 1.3 16c-.172-.338-.24-.694-.27-1.074C1 14.56 1 14.115 1 13.58v-.41c0-.535 0-.98.03-1.345.03-.38.098-.736.27-1.073A2.75 2.75 0 0 1 1.863 10a2.75 2.75 0 0 1-.563-.752c-.172-.337-.24-.693-.27-1.073C1 7.81 1 7.365 1 6.83v-.41c0-.535 0-.98.03-1.345.03-.38.098-.736.27-1.073A2.75 2.75 0 0 1 2.502 2.8c.337-.172.693-.24 1.073-.27.365-.03.81-.03 1.345-.03Zm.03 8.25c-.572 0-.957 0-1.253.025-.287.023-.424.065-.514.111a1.25 1.25 0 0 0-.547.546c-.046.091-.088.228-.111.515-.024.296-.025.68-.025 1.253v.35c0 .572 0 .957.025 1.252.023.288.065.425.111.516.12.235.311.426.547.546.09.046.227.088.514.111.296.024.68.025 1.253.025h10.1c.572 0 .957 0 1.252-.025.288-.023.425-.065.515-.111a1.25 1.25 0 0 0 .547-.546c.046-.091.088-.228.111-.515.024-.296.025-.68.025-1.253v-.35c0-.572 0-.957-.025-1.252-.023-.288-.065-.425-.111-.516a1.25 1.25 0 0 0-.547-.546c-.09-.046-.227-.088-.515-.111-.295-.024-.68-.025-1.252-.025H4.95Zm10.1-1.5c.572 0 .957 0 1.252-.025.288-.023.425-.065.515-.111a1.25 1.25 0 0 0 .547-.547c.046-.09.088-.227.111-.514.024-.296.025-.68.025-1.253v-.35c0-.572 0-.957-.025-1.253-.023-.287-.065-.424-.111-.514a1.25 1.25 0 0 0-.547-.547c-.09-.046-.227-.088-.515-.111C16.007 4 15.622 4 15.05 4H4.95c-.572 0-.957 0-1.253.025-.287.023-.424.065-.514.111a1.25 1.25 0 0 0-.547.547c-.046.09-.088.227-.111.514-.024.296-.025.68-.025 1.253v.35c0 .572 0 .957.025 1.253.023.287.065.424.111.514.12.236.311.427.547.547.09.046.227.088.514.111.296.024.68.025 1.253.025h10.1ZM4 6.747a.75.75 0 0 1 .75-.75L7.25 6a.75.75 0 0 1 0 1.5l-2.5-.001a.75.75 0 0 1-.75-.75Zm0 6.502a.75.75 0 0 1 .75-.749l2.5.002a.75.75 0 0 1 0 1.5L4.75 14a.75.75 0 0 1-.75-.75Z" clip-rule="evenodd"/>
</svg>
