<svg width="22" height="22" viewBox="0 0 22 22" fill="none" xmlns="http://www.w3.org/2000/svg">
<path fill-rule="evenodd" clip-rule="evenodd" d="M7.4002 1.99995C5.74334 1.99995 4.4002 3.3431 4.4002 4.99995C4.4002 6.65681 5.74334 7.99995 7.4002 7.99995C9.05705 7.99995 10.4002 6.65681 10.4002 4.99995C10.4002 3.3431 9.05705 1.99995 7.4002 1.99995ZM2.6002 4.99995C2.6002 2.34898 4.74923 0.199951 7.4002 0.199951C10.0512 0.199951 12.2002 2.34898 12.2002 4.99995C12.2002 7.65092 10.0512 9.79995 7.4002 9.79995C4.74923 9.79995 2.6002 7.65092 2.6002 4.99995ZM13.7002 1.09995C13.7002 0.602895 14.1031 0.199951 14.6002 0.199951C17.2512 0.199951 19.4002 2.34898 19.4002 4.99995C19.4002 7.65092 17.2512 9.79995 14.6002 9.79995C14.1031 9.79995 13.7002 9.39701 13.7002 8.89995C13.7002 8.40289 14.1031 7.99995 14.6002 7.99995C16.257 7.99995 17.6002 6.65681 17.6002 4.99995C17.6002 3.3431 16.257 1.99995 14.6002 1.99995C14.1031 1.99995 13.7002 1.59701 13.7002 1.09995ZM0.200195 18.9499C0.200195 15.222 3.22227 12.2 6.95019 12.2H7.85019C11.5781 12.2 14.6002 15.222 14.6002 18.9499C14.6002 20.524 13.3242 21.7999 11.7502 21.7999H3.0502C1.47618 21.7999 0.200195 20.524 0.200195 18.9499ZM6.95019 14C4.21639 14 2.0002 16.2161 2.0002 18.9499C2.0002 19.5298 2.4703 20 3.0502 20H11.7502C12.3301 20 12.8002 19.5298 12.8002 18.9499C12.8002 16.2161 10.584 14 7.85019 14H6.95019ZM14.0002 13.1C14.0002 12.6029 14.4031 12.2 14.9002 12.2H15.0502C18.7781 12.2 21.8002 15.222 21.8002 18.9499C21.8002 20.524 20.5242 21.7999 18.9502 21.7999H17.0002C16.5031 21.7999 16.1002 21.397 16.1002 20.9C16.1002 20.4029 16.5031 20 17.0002 20H18.9502C19.5301 20 20.0002 19.5299 20.0002 18.9499C20.0002 16.2161 17.784 14 15.0502 14H14.9002C14.4031 14 14.0002 13.597 14.0002 13.1Z" fill="#7E8C9A"/>
</svg>
