<svg width="21" height="22" viewBox="0 0 21 22" fill="none" xmlns="http://www.w3.org/2000/svg">
<path fill-rule="evenodd" clip-rule="evenodd" d="M8.99961 1.99995C7.34275 1.99995 5.99961 3.3431 5.99961 4.99995C5.99961 6.65681 7.34275 7.99995 8.99961 7.99995C10.6565 7.99995 11.9996 6.65681 11.9996 4.99995C11.9996 3.3431 10.6565 1.99995 8.99961 1.99995ZM4.19961 4.99995C4.19961 2.34898 6.34864 0.199951 8.99961 0.199951C11.6506 0.199951 13.7996 2.34898 13.7996 4.99995C13.7996 7.65092 11.6506 9.79995 8.99961 9.79995C6.34864 9.79995 4.19961 7.65092 4.19961 4.99995ZM0.599609 18.9499C0.599609 15.222 3.62169 12.2 7.34961 12.2H9.89961C10.3967 12.2 10.7996 12.6029 10.7996 13.1C10.7996 13.597 10.3967 14 9.89961 14H7.34961C4.6158 14 2.39961 16.2161 2.39961 18.9499C2.39961 19.5298 2.86971 20 3.44961 20H7.49961C7.99667 20 8.39961 20.4029 8.39961 20.9C8.39961 21.397 7.99667 21.7999 7.49961 21.7999H3.44961C1.8756 21.7999 0.599609 20.524 0.599609 18.9499ZM20.7176 14.8456C21.0789 15.1869 21.0952 15.7565 20.7539 16.1179L15.6539 21.5179C15.4813 21.7007 15.2402 21.8029 14.9888 21.7999C14.7374 21.7969 14.4988 21.6889 14.3306 21.502L11.6306 18.502C11.2981 18.1326 11.3281 17.5635 11.6975 17.231C12.067 16.8985 12.6361 16.9284 12.9686 17.2979L15.0156 19.5723L19.4453 14.882C19.7866 14.5206 20.3562 14.5043 20.7176 14.8456Z" fill="#7E8C9A"/>
</svg>
