<svg width="20" height="22" viewBox="0 0 20 22" fill="none" xmlns="http://www.w3.org/2000/svg">
<path fill-rule="evenodd" clip-rule="evenodd" d="M6.10039 2.29995C6.10039 1.14015 7.04059 0.199951 8.20039 0.199951H11.8004C12.9602 0.199951 13.9004 1.14015 13.9004 2.29995V11H17.5004C18.6602 11 19.6004 11.9402 19.6004 13.1V19.6999C19.6004 20.8597 18.6602 21.7999 17.5004 21.7999H2.50039C1.34059 21.7999 0.400391 20.8597 0.400391 19.6999V8.29995C0.400391 7.14015 1.34059 6.19995 2.50039 6.19995H6.10039V2.29995ZM6.10039 7.99995H2.50039C2.33471 7.99995 2.20039 8.13427 2.20039 8.29995V19.6999C2.20039 19.8656 2.33471 20 2.50039 20H6.10039V7.99995ZM7.90039 20H12.1004V2.29995C12.1004 2.13427 11.9661 1.99995 11.8004 1.99995H8.20039C8.03471 1.99995 7.90039 2.13427 7.90039 2.29995V20ZM13.9004 20H17.5004C17.6661 20 17.8004 19.8656 17.8004 19.6999V13.1C17.8004 12.9343 17.6661 12.8 17.5004 12.8H13.9004V20Z" fill="#7E8C9A"/>
</svg>
