<svg width="22" height="22" viewBox="0 0 22 22" fill="none" xmlns="http://www.w3.org/2000/svg">
<path fill-rule="evenodd" clip-rule="evenodd" d="M1.1002 0.199951C1.59725 0.199951 2.0002 0.602895 2.0002 1.09995V14.5272L7.6638 8.86355C7.96716 8.5602 8.44247 8.51313 8.79943 8.75111L13.5359 11.9087L20.2169 4.11424C20.5403 3.73685 21.1085 3.69314 21.4859 4.01662C21.8633 4.3401 21.907 4.90827 21.5835 5.28566L14.3835 13.6857C14.0873 14.0313 13.5797 14.1013 13.201 13.8488L8.41487 10.6581L2.0002 17.0727C2.00021 17.7526 2.00108 18.2101 2.02991 18.563C2.05806 18.9075 2.10831 19.0723 2.16369 19.1809C2.3075 19.4632 2.53697 19.6926 2.81921 19.8365C2.92788 19.8918 3.09262 19.9421 3.43717 19.9702C3.79222 19.9993 4.25328 20 4.9402 20H19.7002C20.1973 20 20.6002 20.4029 20.6002 20.9C20.6002 21.397 20.1973 21.7999 19.7002 21.7999H4.90365C4.26268 21.8 3.72767 21.8 3.29059 21.7643C2.83473 21.727 2.40674 21.6465 2.00203 21.4403C1.38109 21.1239 0.876257 20.6191 0.559875 19.9981C0.353662 19.5934 0.273129 19.1654 0.235883 18.7096C0.200172 18.2725 0.200183 17.7375 0.200196 17.0965L0.200196 1.09995C0.200196 0.602895 0.60314 0.199951 1.1002 0.199951Z" fill="white"/>
</svg>
