<svg width="22" height="22" viewBox="0 0 22 22" fill="none" xmlns="http://www.w3.org/2000/svg">
<path fill-rule="evenodd" clip-rule="evenodd" d="M11.2841 2.32683C11.0967 2.29073 10.9041 2.29073 10.7167 2.32683C10.5349 2.36183 10.3459 2.4496 9.65399 2.80601L3.06564 6.20002L9.65399 9.59402C10.3459 9.95043 10.5349 10.0382 10.7167 10.0732C10.9041 10.1093 11.0967 10.1093 11.2841 10.0732C11.4658 10.0382 11.6549 9.95043 12.3468 9.59402L18.9351 6.20002L12.3468 2.80601C11.6549 2.4496 11.4658 2.36183 11.2841 2.32683ZM10.3762 0.559315C10.7885 0.479903 11.2122 0.479903 11.6245 0.559315C12.093 0.649552 12.5252 0.872597 13.0749 1.15623C13.1065 1.17257 13.1386 1.18912 13.1711 1.20586L21.3125 5.39994C21.6121 5.55427 21.8004 5.86302 21.8004 6.20002C21.8004 6.53701 21.6121 6.84577 21.3125 7.00009L13.1711 11.1942C13.1386 11.2109 13.1065 11.2275 13.0749 11.2438C12.5252 11.5274 12.093 11.7505 11.6245 11.8407C11.2122 11.9201 10.7885 11.9201 10.3762 11.8407C9.90775 11.7505 9.47553 11.5274 8.92592 11.2438C8.89423 11.2275 8.86216 11.2109 8.82967 11.1942L0.688223 7.00009C0.388645 6.84577 0.200384 6.53701 0.200384 6.20002C0.200384 5.86302 0.388645 5.55427 0.688223 5.39994L8.82967 1.20586C8.86216 1.18912 8.89423 1.17257 8.92591 1.15623C9.47553 0.872596 9.90775 0.649552 10.3762 0.559315ZM0.300307 10.5879C0.527937 10.146 1.07067 9.97231 1.51254 10.1999L9.65399 14.394C10.3459 14.7504 10.5349 14.8382 10.7167 14.8732C10.9041 14.9093 11.0967 14.9093 11.2841 14.8732C11.4658 14.8382 11.6549 14.7504 12.3468 14.394L20.4882 10.1999C20.9301 9.97231 21.4728 10.146 21.7005 10.5879C21.9281 11.0297 21.7544 11.5725 21.3125 11.8001L13.1711 15.9942C13.1386 16.0109 13.1065 16.0275 13.0749 16.0438C12.5252 16.3274 12.093 16.5505 11.6245 16.6407C11.2122 16.7201 10.7885 16.7201 10.3762 16.6407C9.90775 16.5505 9.47553 16.3274 8.92591 16.0438C8.89423 16.0275 8.86216 16.0109 8.82967 15.9942L0.688223 11.8001C0.246352 11.5725 0.0726765 11.0297 0.300307 10.5879ZM0.300307 15.3879C0.527937 14.946 1.07067 14.7723 1.51254 14.9999L9.65399 19.194C10.3459 19.5504 10.5349 19.6382 10.7167 19.6732C10.9041 19.7093 11.0967 19.7093 11.2841 19.6732C11.4658 19.6382 11.6549 19.5504 12.3468 19.194L20.4882 14.9999C20.9301 14.7723 21.4728 14.946 21.7005 15.3879C21.9281 15.8297 21.7544 16.3725 21.3125 16.6001L13.1711 20.7942C13.1386 20.8109 13.1065 20.8275 13.0749 20.8438C12.5252 21.1274 12.093 21.3505 11.6245 21.4407C11.2122 21.5201 10.7885 21.5201 10.3762 21.4407C9.90775 21.3505 9.47552 21.1274 8.9259 20.8438C8.89422 20.8275 8.86216 20.8109 8.82967 20.7942L0.688223 16.6001C0.246352 16.3725 0.0726765 15.8297 0.300307 15.3879Z" fill="#7E8C9A"/>
</svg>
