<svg xmlns="http://www.w3.org/2000/svg" width="18" height="18" fill="none" viewBox="0 0 18 18">
  <path fill="#4A545E" fill-rule="evenodd" d="M9 0a.75.75 0 0 1 .75.75v8.787l1.991-1.838A.75.75 0 1 1 12.76 8.8l-3.25 3a.75.75 0 0 1-1.018 0l-3.25-3A.75.75 0 1 1 6.26 7.7l1.99 1.837V.75A.75.75 0 0 1 9 0ZM.75 12a.75.75 0 0 1 .75.75v2.5c0 .69.56 1.25 1.25 1.25h12.5c.69 0 1.25-.56 1.25-1.25v-2.5a.75.75 0 0 1 1.5 0v2.5A2.75 2.75 0 0 1 15.25 18H2.75A2.75 2.75 0 0 1 0 15.25v-2.5A.75.75 0 0 1 .75 12Z" clip-rule="evenodd"/>
</svg>
