<svg width="22" height="22" viewBox="0 0 22 22" fill="none" xmlns="http://www.w3.org/2000/svg">
<path fill-rule="evenodd" clip-rule="evenodd" d="M11.1116 2.02803C10.9991 1.97 10.8344 2.00046 10.7522 2.17442L8.60979 6.71084C8.31478 7.3355 7.73387 7.78771 7.03964 7.89313L2.24903 8.62058C2.1966 8.62854 2.14129 8.65526 2.09447 8.70545C1.96598 8.8432 1.9698 9.07807 2.09998 9.21068L5.5665 12.7418C6.05153 13.2359 6.26407 13.9357 6.15288 14.6132L5.33455 19.5992C5.32107 19.6813 5.33443 19.7644 5.36938 19.8339C5.45464 20.0033 5.6185 20.0307 5.73096 19.9689L10.0158 17.6149C10.6306 17.2771 11.3696 17.2771 11.9844 17.6149L16.2693 19.9689C16.321 19.9973 16.3762 20.0055 16.4282 19.9962C16.5039 19.9826 16.5865 19.934 16.6469 19.8503C16.7049 19.7699 16.7249 19.6818 16.7125 19.6019L15.8473 14.6132C15.7361 13.9358 15.9487 13.2359 16.4337 12.7418L19.9002 9.21068C19.9484 9.16165 19.9848 9.09163 19.9963 9.00915C20.0274 8.78573 19.8769 8.63966 19.7512 8.62058L14.9606 7.89313C14.2664 7.78771 13.6855 7.3355 13.3904 6.71084L11.248 2.17442C11.2148 2.10403 11.1642 2.05518 11.1116 2.02803ZM9.1246 1.40574C9.62122 0.354172 10.8764 -0.118539 11.9366 0.428264C12.351 0.641963 12.6784 0.98812 12.8756 1.40574L15.0181 5.94216C15.068 6.04783 15.1538 6.10184 15.2308 6.11353L20.0214 6.84098C21.19 7.01842 21.9361 8.12804 21.7792 9.25706C21.7157 9.71313 21.5095 10.1408 21.1847 10.4717L17.7182 14.0028C17.6457 14.0766 17.6037 14.1946 17.6231 14.3188L18.4883 19.3077C18.6812 20.4826 17.8583 21.5685 16.7458 21.7679C16.2846 21.8506 15.8118 21.7714 15.4026 21.5465L11.1177 19.1925C11.0427 19.1512 10.9576 19.1512 10.8825 19.1925L6.59768 21.5465C5.55257 22.1207 4.28471 21.683 3.7614 20.6428C3.55402 20.2306 3.48376 19.7619 3.55831 19.3077L4.37665 14.3217C4.39721 14.1964 4.35508 14.0772 4.28201 14.0028L0.815498 10.4717C0.00920163 9.65035 -0.0061471 8.31856 0.778208 7.47767C1.09489 7.13816 1.51588 6.91128 1.9788 6.84098L6.76941 6.11353C6.84643 6.10184 6.93226 6.04783 6.98217 5.94216L9.1246 1.40574Z" fill="#7E8C9A"/>
</svg>
