<svg width="22" height="20" viewBox="0 0 22 20" fill="none" xmlns="http://www.w3.org/2000/svg">
<path fill-rule="evenodd" clip-rule="evenodd" d="M0.200195 3.6999C0.200195 1.87736 1.67766 0.399902 3.5002 0.399902H10.7002C11.0011 0.399902 11.2821 0.550293 11.449 0.800672L13.5819 3.9999H18.5002C20.3227 3.9999 21.8002 5.47736 21.8002 7.2999V16.2999C21.8002 18.1224 20.3227 19.5999 18.5002 19.5999H3.5002C1.67766 19.5999 0.200195 18.1224 0.200195 16.2999V3.6999ZM11.4185 3.9999L10.2185 2.1999H3.5002C2.67177 2.1999 2.0002 2.87148 2.0002 3.6999V3.9999H11.4185ZM2.0002 5.7999V16.2999C2.0002 17.1283 2.67177 17.7999 3.5002 17.7999H18.5002C19.3286 17.7999 20.0002 17.1283 20.0002 16.2999V7.2999C20.0002 6.47148 19.3286 5.7999 18.5002 5.7999H2.0002Z" fill="#7E8C9A"/>
</svg>
