<svg width="22" height="22" viewBox="0 0 22 22" fill="none" xmlns="http://www.w3.org/2000/svg">
<path fill-rule="evenodd" clip-rule="evenodd" d="M11.0002 1.99995C6.02963 1.99995 2.0002 6.02939 2.0002 11C2.0002 15.9705 6.02963 20 11.0002 20C15.9708 20 20.0002 15.9705 20.0002 11C20.0002 6.02939 15.9708 1.99995 11.0002 1.99995ZM0.200195 11C0.200195 5.03528 5.03552 0.199951 11.0002 0.199951C16.9649 0.199951 21.8002 5.03528 21.8002 11C21.8002 16.9646 16.9649 21.7999 11.0002 21.7999C5.03552 21.7999 0.200195 16.9646 0.200195 11ZM15.4505 6.98779C15.8438 7.29172 15.9163 7.85694 15.6124 8.25025L10.5124 14.8503C10.3491 15.0615 10.1006 15.1893 9.8339 15.1993C9.56718 15.2093 9.30978 15.1004 9.13123 14.902L6.43123 11.902C6.09872 11.5326 6.12867 10.9635 6.49813 10.631C6.86759 10.2985 7.43665 10.3284 7.76916 10.6979L9.74758 12.8961L14.188 7.14965C14.492 6.75633 15.0572 6.68387 15.4505 6.98779Z" fill="#7E8C9A"/>
</svg>
