<svg width="20" height="22" viewBox="0 0 20 22" fill="none" xmlns="http://www.w3.org/2000/svg">
<path fill-rule="evenodd" clip-rule="evenodd" d="M5.20039 4.99995C5.20039 2.34898 7.34942 0.199951 10.0004 0.199951C12.6514 0.199951 14.8004 2.34898 14.8004 4.99995V8.59995H16.3004C18.1229 8.59995 19.6004 10.0774 19.6004 11.9V18.5C19.6004 20.3225 18.1229 21.7999 16.3004 21.7999H3.70039C1.87785 21.7999 0.400391 20.3225 0.400391 18.5V11.9C0.400391 10.0774 1.87785 8.59995 3.70039 8.59995H5.20039V4.99995ZM7.00039 8.59995H13.0004V4.99995C13.0004 3.3431 11.6572 1.99995 10.0004 1.99995C8.34354 1.99995 7.00039 3.3431 7.00039 4.99995V8.59995ZM3.70039 10.4C2.87196 10.4 2.20039 11.0715 2.20039 11.9V18.5C2.20039 19.3284 2.87196 20 3.70039 20H16.3004C17.1288 20 17.8004 19.3284 17.8004 18.5V11.9C17.8004 11.0715 17.1288 10.4 16.3004 10.4H3.70039ZM10.0004 13.4C10.4974 13.4 10.9004 13.8029 10.9004 14.3V16.0999C10.9004 16.597 10.4974 17 10.0004 17C9.50333 17 9.10039 16.597 9.10039 16.0999V14.3C9.10039 13.8029 9.50333 13.4 10.0004 13.4Z" fill="#7E8C9A"/>
</svg>
