<svg width="14" height="18" viewBox="0 0 14 18" fill="none" xmlns="http://www.w3.org/2000/svg">
<path fill-rule="evenodd" clip-rule="evenodd" d="M7.0002 1.5C6.17177 1.5 5.5002 2.17157 5.5002 3C5.5002 3.82843 6.17177 4.5 7.0002 4.5C7.82863 4.5 8.5002 3.82843 8.5002 3C8.5002 2.17157 7.82863 1.5 7.0002 1.5ZM4.0002 3C4.0002 1.34315 5.34335 0 7.0002 0C8.65706 0 10.0002 1.34315 10.0002 3C10.0002 4.65685 8.65706 6 7.0002 6C5.34335 6 4.0002 4.65685 4.0002 3ZM0.0358837 5.52142C0.162126 5.12691 0.584277 4.90944 0.978784 5.03568L7.0002 6.96254L13.0216 5.03568C13.4161 4.90944 13.8383 5.12691 13.9645 5.52142C14.0908 5.91593 13.8733 6.33808 13.4788 6.46432L7.7502 8.29746V10.7692L11.8704 16.8283C12.1033 17.1708 12.0145 17.6373 11.6719 17.8702C11.3294 18.1031 10.8629 18.0143 10.63 17.6717L7.0002 12.3338L3.3704 17.6717C3.13748 18.0143 2.67099 18.1031 2.32847 17.8702C1.98595 17.6373 1.89709 17.1708 2.13001 16.8283L6.2502 10.7692V8.29746L0.52162 6.46432C0.127113 6.33808 -0.0903586 5.91593 0.0358837 5.52142Z" fill="#7E8C9A"/>
</svg>
