<svg width="16" height="18" viewBox="0 0 16 18" fill="none" xmlns="http://www.w3.org/2000/svg">
<path fill-rule="evenodd" clip-rule="evenodd" d="M12.2394 3.27881C9.89694 0.907065 6.10306 0.907065 3.76065 3.27881C1.41312 5.65573 1.41312 9.51331 3.76065 11.8902L8 16.1827L12.2394 11.8902C14.5869 9.51331 14.5869 5.65573 12.2394 3.27881ZM8 17.25L7.46634 17.777L2.69341 12.9443C-0.231137 9.98311 -0.231137 5.18593 2.69341 2.22477C5.62308 -0.741589 10.3769 -0.741589 13.3066 2.22477C16.2311 5.18593 16.2311 9.98311 13.3066 12.9443L8.53424 17.7764L8 17.25ZM8 17.25L8.53424 17.7764C8.39333 17.9191 8.20053 18 8 18C7.79947 18 7.60725 17.9197 7.46634 17.777L8 17.25ZM8 5.5C7.17157 5.5 6.5 6.17157 6.5 7C6.5 7.82843 7.17157 8.5 8 8.5C8.82843 8.5 9.5 7.82843 9.5 7C9.5 6.17157 8.82843 5.5 8 5.5ZM5 7C5 5.34315 6.34315 4 8 4C9.65685 4 11 5.34315 11 7C11 8.65685 9.65685 10 8 10C6.34315 10 5 8.65685 5 7Z" fill="#555F6D"/>
</svg>
