<svg width="24" height="22" viewBox="0 0 24 22" fill="none" xmlns="http://www.w3.org/2000/svg">
<path d="M5.19951 9.97306L5.19943 9.97383C5.15916 10.3791 5.00749 10.9988 4.84165 11.6765C4.82622 11.7396 4.81067 11.8032 4.79507 11.8671C4.70623 12.2312 4.61796 12.6009 4.55196 12.9343C4.48736 13.2605 4.43739 13.5836 4.43739 13.8451C4.43739 14.5289 4.53938 15.0562 4.66687 15.5365C4.71763 15.7277 4.76771 15.8971 4.8161 16.0609C4.89518 16.3285 4.96974 16.5808 5.03529 16.8875C5.21529 17.7299 5.28863 18.8691 4.81612 21.0383C4.52938 20.8826 4.21726 20.6535 3.89197 20.3486C3.37652 19.8654 2.85363 19.2154 2.37565 18.4365C1.42168 16.882 0.669967 14.8525 0.5 12.6968V10.9223C0.554818 10.2495 0.670232 9.57983 0.860271 8.91996L0.860319 8.91979C2.74738 2.35868 8.63967 -0.239454 13.9636 0.678203C17.3217 1.25702 20.4413 3.23516 22.1475 6.52053L21.7327 6.55816C21.1758 6.60867 20.745 6.89744 20.4006 7.2234C20.1339 7.47589 19.8831 7.78784 19.6546 8.07213C19.5973 8.14338 19.5414 8.2129 19.487 8.27931C18.9978 8.87651 18.5757 9.29124 18.0074 9.36802C18.0005 9.24663 18.0153 9.14561 18.0399 9.05701C18.0892 8.87875 18.1864 8.71609 18.3293 8.49999C18.3441 8.47752 18.3595 8.45453 18.3752 8.431C18.649 8.0211 19.0337 7.44506 18.812 6.57042L18.7449 6.30591L18.4862 6.2192C17.8586 6.00887 17.3059 6.02566 16.8144 6.29037C16.3547 6.53803 16.0169 6.96903 15.725 7.42248L15.7249 7.42269C15.5043 7.76589 15.3655 8.0559 15.305 8.3289C15.2402 8.62078 15.2734 8.85443 15.3283 9.05853C15.3484 9.13328 15.3698 9.20119 15.3906 9.26717C15.4588 9.48314 15.5203 9.67824 15.5068 10.0235C14.9672 10.5312 14.4879 10.768 13.9772 10.8717C13.4368 10.9816 12.8276 10.9509 12.0034 10.8603C11.5084 10.3587 11.3906 10.1388 11.3147 9.92882C11.2933 9.86963 11.2703 9.7897 11.2418 9.6902C11.1648 9.42159 11.0468 9.01034 10.8073 8.47927L10.8072 8.479C10.5224 7.84848 10.2439 7.49416 9.94507 7.1801C9.86545 7.09643 9.7896 7.02036 9.715 6.94553C9.54648 6.77651 9.3843 6.61384 9.19927 6.38429C9.23408 6.00413 9.30741 5.74958 9.38535 5.56445C9.46158 5.38335 9.5439 5.25946 9.64191 5.11195C9.66378 5.07902 9.68644 5.04492 9.70999 5.00875C9.83828 4.81164 9.98148 4.56526 10.0183 4.21065C10.0534 3.87249 9.98712 3.48799 9.82333 3.00202L9.73577 2.7422L9.46962 2.67635C9.15324 2.59806 8.85849 2.58938 8.57813 2.6527C8.29956 2.71562 8.06505 2.84288 7.85995 2.99404C7.65923 3.14196 7.47521 3.3217 7.30271 3.49765C7.25011 3.5513 7.1987 3.60445 7.14735 3.65755C7.02246 3.78668 6.89787 3.91552 6.75703 4.05053L6.61193 4.18963L6.60349 4.39046L6.51463 6.50348C6.18182 6.84037 5.93529 7.09119 5.76138 7.29446C5.55763 7.53261 5.41431 7.74905 5.33942 8.01902C5.27564 8.24893 5.27144 8.49324 5.26718 8.73997C5.26692 8.75517 5.26666 8.77039 5.26638 8.78561C5.26129 9.06601 5.25402 9.43303 5.19951 9.97306ZM21.1367 19.0556C20.9785 18.8712 20.8104 18.6312 20.6383 18.338C20.3298 17.8126 20.0374 17.1675 19.7857 16.4924C19.2744 15.1214 18.9675 13.7285 18.9887 13.0463L18.9887 13.0453C19.0169 12.0765 19.6049 11.5013 20.4052 10.7184C20.44 10.6844 20.4751 10.65 20.5107 10.6151C21.3364 9.8056 22.2778 8.80998 22.2778 7.05611V6.77961C23.1817 8.6369 23.6426 10.8945 23.4608 13.5367L23.4608 13.5375C23.3297 15.4925 22.2737 17.2946 21.1367 19.0556Z" stroke="#7E8C9A"/>
</svg>
